<svg width="85" height="85" viewBox="0 0 85 85" fill="none" xmlns="http://www.w3.org/2000/svg">
<mask id="mask0_650_899" style="mask-type:alpha" maskUnits="userSpaceOnUse" x="0" y="0" width="85" height="85">
<circle cx="42.5" cy="42.5" r="42.5" fill="#D4D6EF"/>
</mask>
<g mask="url(#mask0_650_899)">
<circle cx="42.5" cy="42.5" r="42.5" fill="#D4D6EF"/>
<path d="M42.5 0H85V42.5H47.8125C44.8785 42.5 42.5 40.1215 42.5 37.1875V0Z" fill="#E0ACA3"/>
<path d="M42.5 21.25H85V42.5H47.8125C44.8785 42.5 42.5 40.1215 42.5 37.1875V21.25Z" fill="white"/>
<path d="M0 42.5H37.1875C40.1215 42.5 42.5 44.8785 42.5 47.8125V85H0V42.5Z" fill="white"/>
<path d="M21.25 42.5H37.1875C40.1215 42.5 42.5 44.8785 42.5 47.8125V85H21.25V42.5Z" fill="#E0ACA3"/>
<line x1="-16.5194" y1="50.7726" x2="46.3452" y2="-12.092" stroke="#656BB9" stroke-width="14.1667"/>
<line x1="-20.6681" y1="30.4083" x2="61.6757" y2="112.752" stroke="#656BB9" stroke-width="14.1667"/>
<line x1="35.7208" y1="100.356" x2="98.5854" y2="37.491" stroke="#656BB9" stroke-width="14.1667"/>
<line x1="28.9149" y1="-21.8319" x2="111.259" y2="60.5118" stroke="#656BB9" stroke-width="14.1667"/>
<path d="M17.2231 54.496V24.6933C17.2231 23.4489 17.1159 22.5263 16.9013 21.9255C16.6867 21.2818 16.2362 20.8527 15.5496 20.6381C14.9059 20.3806 13.9404 20.2519 12.653 20.2519C12.5242 20.2519 12.4599 20.1232 12.4599 19.8657C12.4599 19.6082 12.5242 19.4795 12.653 19.4795C13.7687 19.4795 15.0132 19.5224 16.3864 19.6082C17.7596 19.6511 19.2186 19.6726 20.7634 19.6726C22.3941 19.6726 23.896 19.6511 25.2692 19.6082C26.6424 19.5224 27.8654 19.4795 28.9382 19.4795C29.067 19.4795 29.1313 19.6082 29.1313 19.8657C29.1313 20.1232 29.067 20.2519 28.9382 20.2519C27.6509 20.2519 26.6853 20.3806 26.0416 20.6381C25.398 20.8956 24.9474 21.3462 24.6899 21.9899C24.4753 22.6335 24.3681 23.5776 24.3681 24.8221V54.496C24.3681 55.7404 24.4753 56.6845 24.6899 57.3282C24.9045 57.9719 25.3336 58.401 25.9773 58.6156C26.621 58.8301 27.6079 58.9374 28.9382 58.9374C29.1099 58.9374 29.1957 59.0661 29.1957 59.3236C29.1957 59.5811 29.1099 59.7098 28.9382 59.7098C27.8225 59.7098 26.578 59.6884 25.2048 59.6455C23.8746 59.6026 22.3941 59.5811 20.7634 59.5811C19.2186 59.5811 17.7381 59.6026 16.322 59.6455C14.9059 59.6884 13.64 59.7098 12.5242 59.7098C12.4384 59.7098 12.3955 59.5811 12.3955 59.3236C12.3955 59.0661 12.4384 58.9374 12.5242 58.9374C13.8545 58.9374 14.8415 58.8301 15.4852 58.6156C16.1718 58.401 16.6224 57.9719 16.8369 57.3282C17.0944 56.6845 17.2231 55.7404 17.2231 54.496ZM34.2164 50.3764L25.398 38.4682L30.5474 33.5118L40.3958 46.7718C42.0694 49.1319 43.4855 51.0844 44.6441 52.6293C45.8028 54.1312 46.7683 55.3328 47.5407 56.2339C48.3561 57.0922 49.0641 57.7144 49.6649 58.1006C50.2657 58.4868 50.845 58.7228 51.4028 58.8087C52.0036 58.8945 52.6473 58.9374 53.3339 58.9374C53.4626 58.9374 53.527 59.0661 53.527 59.3236C53.527 59.5811 53.4626 59.7098 53.3339 59.7098C51.4458 59.7098 49.9224 59.7098 48.7637 59.7098C47.6051 59.7098 46.7254 59.7098 46.1246 59.7098C45.0518 59.7098 44.215 59.7313 43.6142 59.7742C43.0135 59.86 42.4771 59.8171 42.005 59.6455C41.5759 59.4738 41.061 59.0876 40.4602 58.4868C39.9023 57.8861 39.1299 56.942 38.1429 55.6546C37.1989 54.3672 35.89 52.6078 34.2164 50.3764ZM19.8623 43.1027L36.4693 26.1095C38.0571 24.5217 38.6364 23.1485 38.2073 21.9899C37.8211 20.8312 36.5552 20.2519 34.4096 20.2519C34.2808 20.2519 34.2164 20.1232 34.2164 19.8657C34.2164 19.6082 34.2808 19.4795 34.4096 19.4795C35.5682 19.4795 36.7483 19.5224 37.9498 19.6082C39.1514 19.6511 40.7391 19.6726 42.7131 19.6726C44.7729 19.6726 46.4036 19.6511 47.6051 19.6082C48.8066 19.5224 49.9653 19.4795 51.081 19.4795C51.2097 19.4795 51.2741 19.6082 51.2741 19.8657C51.2741 20.1232 51.2097 20.2519 51.081 20.2519C49.107 20.2519 46.94 20.8312 44.5798 21.9899C42.2196 23.1056 40.074 24.6075 38.1429 26.4957L21.6002 43.2959L19.8623 43.1027Z" fill="#242867"/>
<path d="M69.1218 55.3971C69.1218 58.7014 68.9072 61.5121 68.4781 63.8294C68.049 66.1896 67.3195 68.185 66.2896 69.8157C65.3026 71.4893 63.9509 72.9268 62.2344 74.1284C60.5179 75.3299 58.3722 76.4242 55.7975 77.4112C55.6688 77.4541 55.5615 77.3683 55.4757 77.1537C55.3898 76.9391 55.3898 76.789 55.4757 76.7031C58.0075 75.0725 59.7025 72.605 60.5608 69.3007C61.4619 66.0394 61.9125 61.9842 61.9125 57.1351V24.6933C61.9125 23.4489 61.7838 22.5263 61.5263 21.9255C61.3117 21.2818 60.8612 20.8527 60.1746 20.6381C59.5309 20.3806 58.5439 20.2519 57.2136 20.2519C57.1278 20.2519 57.0849 20.1232 57.0849 19.8657C57.0849 19.6082 57.1278 19.4795 57.2136 19.4795C58.4581 19.4795 59.7669 19.5224 61.1401 19.6082C62.5133 19.6511 63.9509 19.6726 65.4528 19.6726C66.9547 19.6726 68.3279 19.6511 69.5724 19.6082C70.8168 19.5224 71.954 19.4795 72.9839 19.4795C73.0697 19.4795 73.1126 19.6082 73.1126 19.8657C73.1126 20.1232 73.0697 20.2519 72.9839 20.2519C71.3103 20.2519 70.2375 20.5523 69.7655 21.1531C69.3364 21.7538 69.1218 22.9768 69.1218 24.8221V55.3971Z" fill="#242867"/>
</g>
</svg>
